<?xml version="1.0" encoding="UTF-8" standalone="no"?>
<!-- Generator: Adobe Illustrator 26.3.1, SVG Export Plug-In . SVG Version: 6.00 Build 0)  -->

<svg
   version="1.1"
   id="Calque_1"
   x="0px"
   y="0px"
   viewBox="0 0 531.44 119.06"
   style="enable-background:new 0 0 531.44 119.06;"
   xml:space="preserve"
   sodipodi:docname="RAGtime_Logo_Picto_Violet.svg"
   inkscape:version="1.3.1 (9b9bdc1480, 2023-11-25, custom)"
   xmlns:inkscape="http://www.inkscape.org/namespaces/inkscape"
   xmlns:sodipodi="http://sodipodi.sourceforge.net/DTD/sodipodi-0.dtd"
   xmlns="http://www.w3.org/2000/svg"
   xmlns:svg="http://www.w3.org/2000/svg"><defs
   id="defs8" /><sodipodi:namedview
   id="namedview8"
   pagecolor="#ffffff"
   bordercolor="#000000"
   borderopacity="0.25"
   inkscape:showpageshadow="2"
   inkscape:pageopacity="0.0"
   inkscape:pagecheckerboard="0"
   inkscape:deskcolor="#d1d1d1"
   inkscape:zoom="1.4564203"
   inkscape:cx="265.72"
   inkscape:cy="59.392197"
   inkscape:window-width="1920"
   inkscape:window-height="1043"
   inkscape:window-x="1920"
   inkscape:window-y="0"
   inkscape:window-maximized="1"
   inkscape:current-layer="Calque_1" />
<style
   type="text/css"
   id="style1">
	.st0{fill:#502BFF;}
	.st1{fill:#FFFFFF;}
</style>
<rect
   style="fill:#ffffff;stroke:#ffffff;stroke-width:1.51181"
   id="rect8"
   width="59.400002"
   height="52.330002"
   x="31.16"
   y="35.849998" /><g
   id="g1">
	<path
   class="st0"
   d="M60.86,12.25c-27.35,0-49.53,22.17-49.53,49.53s22.17,49.53,49.53,49.53s49.53-22.17,49.53-49.53   S88.21,12.25,60.86,12.25z M43.98,88.18H31.16V35.85h12.82V88.18z M59.11,88.11H45.52l16.74-52.26H76.2L59.11,88.11z M90.56,88.18   H77.74V35.85h12.82V88.18z"
   id="path1" />
</g>
<g
   id="g7">
	<g
   id="g6">
		<path
   class="st1"
   d="M128.42,28.04h26.18c16.02,0,24.61,9,24.61,22.33c0,9.48-4.33,16.5-12.54,19.81l15.1,27.68h-14.11    l-13.7-25.57h-12.88v25.57h-12.65V28.04z M152.73,61.79c9.38,0,13.6-3.99,13.6-11.42s-4.23-11.76-13.67-11.76h-11.59v23.18H152.73    z"
   id="path2" />
		<path
   class="st1"
   d="M186.14,97.85l24.58-69.81h15.61l24.61,69.81h-13.5l-5.79-17.21H205.4l-5.76,17.21H186.14z M228.24,70.48    l-9.44-28.12h-0.55l-9.44,28.12H228.24z"
   id="path3" />
		<path
   class="st1"
   d="M281.46,38.44c-11.28,0-19.43,8.73-19.43,24.44c0,15.82,8.01,24.58,19.7,24.58c10.5,0,17.15-6.31,17.35-16.26    h-16.09v-9.89h28.33v8.39c0,18-12.37,29.11-29.66,29.11c-19.26,0-32.35-13.7-32.35-35.79c0-22.5,13.7-35.93,31.97-35.93    c15.44,0,27.3,9.54,29.45,23.25h-12.89C295.6,42.94,289.87,38.44,281.46,38.44z"
   id="path4" />
		<path
   class="st1"
   d="M347.16,55.04h-10.33V82.1c0,4.98,2.49,6.07,5.59,6.07c1.53,0,2.93-0.31,3.61-0.48l2.08,9.65    c-1.33,0.44-3.75,1.12-7.26,1.23c-9.27,0.27-16.43-4.57-16.36-14.42V55.04h-7.43v-9.54h7.43V32.95h12.34v12.54h10.33V55.04z"
   id="path5" />
		<path
   class="st1"
   d="M375.52,45.49h11.79v8.9h0.61c2.18-5.97,7.43-9.58,14.45-9.58c7.06,0,12.13,3.65,14.15,9.58h0.54    c2.32-5.83,8.11-9.58,15.71-9.58c9.61,0,16.36,6.2,16.36,17.9v35.14h-12.37V64.62c0-6.48-3.95-9.41-8.93-9.41    c-5.97,0-9.48,4.09-9.48,9.99v32.66h-12.1V64.11c0-5.39-3.58-8.9-8.79-8.9c-5.32,0-9.61,4.36-9.61,10.81v31.84h-12.34V45.49z"
   id="path6" />
	</g>
	<path
   class="st1"
   d="M465.92,65.53h20.59v-1.82c0-5.67-4.41-9.74-10.3-9.74s-10.3,4.13-10.3,9.81V65.53z M476.21,43.96   c14.22,0,23.47,10.65,23.47,25.08v6.44h-33.69v3.5c0,6.3,4.83,9.88,10.37,9.88s9.46-3.08,10.09-8.41h12.82   c-1.61,11.63-10.37,18.42-23.05,18.42c-14.92,0-23.68-11.07-23.68-27.53C452.54,54.88,461.99,43.96,476.21,43.96"
   id="path7" />
</g>
<path
   class="st1"
   d="M355.41,97.85l-0.07-52.47h12.82l0.07,52.47H355.41z M368.43,39.36h-13.24V27.94h13.24V39.36z"
   id="path8" />
</svg>
